<?xml version="1.0" encoding="UTF-8"?>
<svg width="90px" height="90px" viewBox="0 0 90 90" version="1.1" xmlns="http://www.w3.org/2000/svg" xmlns:xlink="http://www.w3.org/1999/xlink">
    <!-- Generator: Sketch 43.2 (39069) - http://www.bohemiancoding.com/sketch -->
    <title>mass_icon</title>
    <desc>Created with Sketch.</desc>
    <defs></defs>
    <g id="Page-1" stroke="none" stroke-width="1" fill="none" fill-rule="evenodd">
        <rect id="Rectangle" fill="#000000" x="0" y="0" width="90" height="90"></rect>
        <path d="M69.4657886,53.9252385 C69.4657886,67.1922679 58.7107363,77.9473203 45.4437068,77.9473203 C32.1766774,77.9473203 21.421625,67.1922679 21.421625,53.9252385 C21.421625,48.2311579 23.7418378,44.5311552 25.8424989,40.7800473 C25.3304101,38.1923176 20.8316375,20.4428443 26.4934608,15.8207938 C32.155284,11.1987434 59.3257215,11.1359449 63.655479,15.8207938 C67.9852365,20.5056427 65.584217,37.4980027 64.7082211,40.7800473 C66.4907132,43.2452934 69.4657886,48.4479636 69.4657886,53.9252385 Z" id="Oval" stroke="#FFFFFF" stroke-width="2"></path>
        <path d="M33.0312318,34.0836701 C34.546877,33.2213852 39.231565,30.9400803 44.8365866,30.7023865 C50.4416082,30.4646927 56.0968439,33.0828516 57.5196454,34.0836701 C58.9424469,35.0844885 60.4173807,25.1998186 56.1027346,22.1839149 C51.7880885,19.1680112 38.2666875,19.2974403 33.8513744,22.1839149 C29.4360612,25.0703895 31.5155866,34.9459549 33.0312318,34.0836701 Z" id="Path-2" stroke="#FFFFFF" stroke-width="2"></path>
        <path d="M31.0717664,40.7539978 C31.0717664,40.7539978 36.8204493,40.6498486 40.9906539,44.7939277 C45.1608586,48.9380068 44.9991625,55.011494 44.9991625,55.011494" id="Path-3" stroke="#FFFFFF" stroke-width="2" stroke-linecap="round" transform="translate(38.035883, 47.882627) scale(-1, 1) translate(-38.035883, -47.882627) "></path>
    </g>
</svg>