<?xml version="1.0" encoding="UTF-8"?>
<svg width="90px" height="90px" viewBox="0 0 90 90" version="1.1" xmlns="http://www.w3.org/2000/svg" xmlns:xlink="http://www.w3.org/1999/xlink">
    <!-- Generator: Sketch 43.2 (39069) - http://www.bohemiancoding.com/sketch -->
    <title>fast_forward_icon</title>
    <desc>Created with Sketch.</desc>
    <defs></defs>
    <g id="Page-1" stroke="none" stroke-width="1" fill="none" fill-rule="evenodd">
        <circle id="Oval" stroke="#FFFFFF" stroke-width="3" cx="45" cy="45" r="29"></circle>
        <path d="M47.9285368,34.8995647 C47.3022608,35.4358056 47.3300874,40.4133128 47.2629844,45.2773914 C47.1958813,50.1414701 47.0253988,54.7531519 47.8172952,55.1344054 C48.6334309,55.5273287 52.9735527,53.0551169 57.3442901,50.6237914 C61.7150274,48.1924658 65.7488981,46.0438532 65.7352774,45.2773914 C65.7208855,44.4675296 60.703417,41.7636573 56.266449,39.1751544 C51.829481,36.5866514 48.5302362,34.3843672 47.9285368,34.8995647 Z" id="Path-3" stroke="#FFFFFF" stroke-width="3" stroke-linecap="round" stroke-linejoin="round"></path>
        <path d="M29.1932249,34.8995647 C28.566949,35.4358056 28.5947756,40.4133128 28.5276725,45.2773914 C28.4605695,50.1414701 28.290087,54.7531519 29.0819834,55.1344054 C29.8981191,55.5273287 34.2382409,53.0551169 38.6089783,50.6237914 C42.9797156,48.1924658 47.0135862,46.0438532 46.9999656,45.2773914 C46.9855737,44.4675296 41.9681052,41.7636573 37.5311372,39.1751544 C33.0941692,36.5866514 29.7949244,34.3843672 29.1932249,34.8995647 Z" id="Path-3" stroke="#FFFFFF" stroke-width="3" stroke-linecap="round" stroke-linejoin="round"></path>
    </g>
</svg>