<?xml version="1.0" encoding="UTF-8"?>
<svg width="90px" height="90px" viewBox="0 0 90 90" version="1.1" xmlns="http://www.w3.org/2000/svg" xmlns:xlink="http://www.w3.org/1999/xlink">
    <!-- Generator: Sketch 43.2 (39069) - http://www.bohemiancoding.com/sketch -->
    <title>fast_backward_icon</title>
    <desc>Created with Sketch.</desc>
    <defs></defs>
    <g id="Page-1" stroke="none" stroke-width="1" fill="none" fill-rule="evenodd">
        <circle id="Oval" stroke="#FFFFFF" stroke-width="2" cx="45" cy="45" r="29"></circle>
        <path d="M43.7285245,34.8995647 C43.1022486,35.4358056 43.1300752,40.4133128 43.0629721,45.2773914 C42.9958691,50.1414701 42.8253866,54.7531519 43.617283,55.1344054 C44.4334187,55.5273287 48.7735405,53.0551169 53.1442779,50.6237914 C57.5150152,48.1924658 61.5488859,46.0438532 61.5352652,45.2773914 C61.5208733,44.4675296 56.5034048,41.7636573 52.0664368,39.1751544 C47.6294688,36.5866514 44.330224,34.3843672 43.7285245,34.8995647 Z" id="Path-3" stroke="#FFFFFF" stroke-width="2" stroke-linecap="round" stroke-linejoin="round" transform="translate(52.267650, 45.000000) scale(-1, 1) translate(-52.267650, -45.000000) "></path>
        <path d="M25.1932249,34.8995647 C24.566949,35.4358056 24.5947756,40.4133128 24.5276725,45.2773914 C24.4605695,50.1414701 24.290087,54.7531519 25.0819834,55.1344054 C25.8981191,55.5273287 30.2382409,53.0551169 34.6089783,50.6237914 C38.9797156,48.1924658 43.0135862,46.0438532 42.9999656,45.2773914 C42.9855737,44.4675296 37.9681052,41.7636573 33.5311372,39.1751544 C29.0941692,36.5866514 25.7949244,34.3843672 25.1932249,34.8995647 Z" id="Path-3" stroke="#FFFFFF" stroke-width="2" stroke-linecap="round" stroke-linejoin="round" transform="translate(33.732350, 45.000000) scale(-1, 1) translate(-33.732350, -45.000000) "></path>
    </g>
</svg>