<?xml version="1.0" encoding="UTF-8"?>
<svg width="90px" height="90px" viewBox="0 0 90 90" version="1.1" xmlns="http://www.w3.org/2000/svg" xmlns:xlink="http://www.w3.org/1999/xlink">
    <!-- Generator: Sketch 43.2 (39069) - http://www.bohemiancoding.com/sketch -->
    <title>fast_backward_icon</title>
    <desc>Created with Sketch.</desc>
    <defs></defs>
    <g id="Page-1" stroke="none" stroke-width="1" fill="none" fill-rule="evenodd">
        <circle id="Oval" stroke="#FFFFFF" stroke-width="3" cx="45" cy="45" r="29"></circle>
        <path d="M43.7285245,34.8995647 C43.1022486,35.4358056 43.1300752,40.4133128 43.0629721,45.2773914 C42.9958691,50.1414701 42.8253866,54.7531519 43.617283,55.1344054 C44.4334187,55.5273287 48.7735405,53.0551169 53.1442779,50.6237914 C57.5150152,48.1924658 61.5488859,46.0438532 61.5352652,45.2773914 C61.5208733,44.4675296 56.5034048,41.7636573 52.0664368,39.1751544 C47.6294688,36.5866514 44.330224,34.3843672 43.7285245,34.8995647 Z" id="Path-3" stroke="#FFFFFF" stroke-width="3" stroke-linecap="round" stroke-linejoin="round" transform="translate(52.267650, 45.000000) scale(-1, 1) translate(-52.267650, -45.000000) "></path>
        <path d="M24.8271432,34.8994212 C24.20206,35.4346408 24.2298336,40.4026685 24.1628583,45.2574838 C24.0958831,50.1122991 23.9257253,54.7151982 24.7161135,55.0957255 C25.5306949,55.4879005 29.8625512,53.0203969 34.2249647,50.5937018 C38.5873782,48.1670066 42.6135665,46.0224859 42.5999718,45.2574838 C42.5856073,44.4491644 37.5776943,41.7504415 33.1491763,39.1668682 C28.7206583,36.5832949 25.4276967,34.3852048 24.8271432,34.8994212 Z" id="Path-3" stroke="#FFFFFF" stroke-width="3" stroke-linecap="round" stroke-linejoin="round" transform="translate(33.350006, 44.980621) scale(-1, 1) translate(-33.350006, -44.980621) "></path>
    </g>
</svg>