<?xml version="1.0" encoding="UTF-8"?>
<svg width="90px" height="90px" viewBox="0 0 90 90" version="1.1" xmlns="http://www.w3.org/2000/svg" xmlns:xlink="http://www.w3.org/1999/xlink">
    <!-- Generator: Sketch 43.2 (39069) - http://www.bohemiancoding.com/sketch -->
    <title>mass_icon</title>
    <desc>Created with Sketch.</desc>
    <defs></defs>
    <g id="Page-1" stroke="none" stroke-width="1" fill="none" fill-rule="evenodd">
        <path d="M68.4657886,50.9252385 C68.4657886,64.1922679 57.7107363,74.9473203 44.4437068,74.9473203 C31.1766774,74.9473203 20.421625,64.1922679 20.421625,50.9252385 C20.421625,45.2311579 22.7418378,41.5311552 24.8424989,37.7800473 C24.3304101,35.1923176 19.8316375,17.4428443 25.4934608,12.8207938 C31.155284,8.19874337 58.3257215,8.13594489 62.655479,12.8207938 C66.9852365,17.5056427 64.584217,34.4980027 63.7082211,37.7800473 C65.4907132,40.2452934 68.4657886,45.4479636 68.4657886,50.9252385 Z" id="Oval" stroke="#FFFFFF" stroke-width="3"></path>
        <path d="M32.0312318,31.0836701 C33.546877,30.2213852 38.231565,27.9400803 43.8365866,27.7023865 C49.4416082,27.4646927 55.0968439,30.0828516 56.5196454,31.0836701 C57.9424469,32.0844885 59.4173807,22.1998186 55.1027346,19.1839149 C50.7880885,16.1680112 37.2666875,16.2974403 32.8513744,19.1839149 C28.4360612,22.0703895 30.5155866,31.9459549 32.0312318,31.0836701 Z" id="Path-2" stroke="#FFFFFF" stroke-width="3"></path>
        <path d="M30.0717664,37.7539978 C30.0717664,37.7539978 35.8204493,37.6498486 39.9906539,41.7939277 C44.1608586,45.9380068 43.9991625,52.011494 43.9991625,52.011494" id="Path-3" stroke="#FFFFFF" stroke-width="3" stroke-linecap="round" transform="translate(37.035883, 44.882627) scale(-1, 1) translate(-37.035883, -44.882627) "></path>
    </g>
</svg>