<?xml version="1.0" encoding="UTF-8"?>
<svg width="90px" height="90px" viewBox="0 0 90 90" version="1.1" xmlns="http://www.w3.org/2000/svg" xmlns:xlink="http://www.w3.org/1999/xlink">
    <!-- Generator: Sketch 43.2 (39069) - http://www.bohemiancoding.com/sketch -->
    <title>reset_icon</title>
    <desc>Created with Sketch.</desc>
    <defs></defs>
    <g id="Page-1" stroke="none" stroke-width="1" fill="none" fill-rule="evenodd">
        <path d="M44.6797722,11.640208 C40.3795029,11.640208 41.514822,14.3235191 41.514822,14.3235191 L41.5406843,42.3215595 C41.5406843,42.3215595 40.6412536,45.4079307 44.8441936,45.4079307 C49.0471337,45.4079307 48.4433044,42.3796561 48.4433044,42.3796561 L48.5133951,14.2500551 C48.5133951,14.2500551 48.9800416,11.640208 44.6797722,11.640208 Z" id="Path-2" stroke="#FFFFFF" stroke-width="3"></path>
        <path d="M55.4727774,17.9293875 C66.4149601,22.0432427 73.7898522,32.5449113 73.7898522,44.9249724 C73.7898522,60.8831994 60.8531531,73.8198985 44.8949261,73.8198985 C28.9366991,73.8198985 16,60.8831994 16,44.9249724 C16,32.6267686 23.6831191,22.1230535 34.5112857,17.9518986 L34.5112857,29.6700134 C29.216105,32.9272621 25.7677564,38.6521791 25.7677564,45.1574085 C25.7677564,55.3746764 34.2743461,63.6574085 44.7677564,63.6574085 C55.2611666,63.6574085 63.7677564,55.3746764 63.7677564,45.1574085 C63.7677564,38.604038 60.6790266,32.9340551 55.4002462,29.6475023 L55.4727774,17.9293875 Z" id="Oval-3" stroke="#FFFFFF" stroke-width="3"></path>
    </g>
</svg>