<?xml version="1.0" encoding="UTF-8"?>
<svg width="90px" height="90px" viewBox="0 0 90 90" version="1.1" xmlns="http://www.w3.org/2000/svg" xmlns:xlink="http://www.w3.org/1999/xlink">
    <!-- Generator: Sketch 43.2 (39069) - http://www.bohemiancoding.com/sketch -->
    <title>reverse_time2_icon</title>
    <desc>Created with Sketch.</desc>
    <defs></defs>
    <g id="Page-1" stroke="none" stroke-width="1" fill="none" fill-rule="evenodd">
        <path d="M55,22 L45.0009766,45.7382812" id="Line" stroke="#FFFFFF" stroke-width="4" stroke-linecap="square"></path>
        <path d="M58.5078125,56.5585938 L45.1943359,45.7666016" id="Line" stroke="#FFFFFF" stroke-width="4" stroke-linecap="square"></path>
        <circle id="Oval-2" fill="#FFFFFF" cx="45" cy="45.5" r="4"></circle>
        <path d="M42.9021823,16.4033605 L42.9021823,8.94477658 L42.9021823,5.52980115 L40.3873729,7.84016715 L25.040213,21.939668 L23.7522978,23.1228811 L25.1178993,24.2155162 L40.4650592,36.4949741 L42.9021823,38.4449473 L42.9021823,35.3237353 L42.9021823,27.6963832 C52.3345228,28.4579184 59.9806191,36.3238593 59.9806191,45.7344943 C59.9806191,49.449209 58.8614435,52.9927203 56.8017222,55.9865716 C53.4408334,60.8716992 47.9042494,63.8485261 41.8625286,63.8485261 C32.4170607,63.8485261 24.2855513,55.3759331 23.8021039,45.6599496 L23.7311762,44.2344943 L22.3039574,44.2344943 C17.7101282,44.2344943 17.7101282,44.2344943 13.8366851,44.2344943 L12.3366851,44.2344943 L12.3366851,45.7344943 C12.3366851,62.0380347 25.555925,75.2545398 41.8625286,75.2545398 C52.0285811,75.2545398 61.3116662,70.0759214 66.710304,61.6864612 C69.7481349,56.9656851 71.3883722,51.4696254 71.3883722,45.7344943 C71.3883722,30.0311313 58.6352785,17.1761192 42.9021823,16.4033605 Z" id="Oval" stroke="#FFFFFF" stroke-width="3" transform="translate(41.862529, 41.349658) scale(1, -1) rotate(-139.000000) translate(-41.862529, -41.349658) "></path>
    </g>
</svg>