<?xml version="1.0" encoding="UTF-8"?>
<svg width="90px" height="90px" viewBox="0 0 90 90" version="1.1" xmlns="http://www.w3.org/2000/svg" xmlns:xlink="http://www.w3.org/1999/xlink">
    <!-- Generator: Sketch 43.2 (39069) - http://www.bohemiancoding.com/sketch -->
    <title>reverse_time_icon</title>
    <desc>Created with Sketch.</desc>
    <defs></defs>
    <g id="Page-1" stroke="none" stroke-width="1" fill="none" fill-rule="evenodd">
        <path d="M55,22 L45.0009766,45.7382812" id="Line" stroke="#FFFFFF" stroke-width="4" stroke-linecap="square"></path>
        <path d="M58.5078125,56.5585938 L45.1943359,45.7666016" id="Line" stroke="#FFFFFF" stroke-width="4" stroke-linecap="square"></path>
        <circle id="Oval-2" fill="#FFFFFF" cx="45" cy="45.5" r="4"></circle>
        <path d="M44.5112353,24.0819402 L44.5112353,16.6233563 L44.5112353,13.2083808 L41.996426,15.5187469 L26.6492661,29.6182477 L25.3613509,30.8014608 L26.7269523,31.8940959 L42.0741123,44.1735538 L44.5112353,46.123527 L44.5112353,43.002315 L44.5112353,35.3749629 C53.9435759,36.1364981 61.5896722,44.002439 61.5896722,53.413074 C61.5896722,57.1277887 60.4704966,60.6713 58.4107753,63.6651513 C55.0498865,68.5502789 49.5133025,71.5271058 43.4715817,71.5271058 C34.0261138,71.5271058 25.8946044,63.0545128 25.411157,53.3385293 L25.3402293,51.913074 L23.9130105,51.913074 C19.3191813,51.913074 19.3191813,51.913074 15.4457382,51.913074 L13.9457382,51.913074 L13.9457382,53.413074 C13.9457382,69.7166144 27.1649781,82.9331195 43.4715817,82.9331195 C53.6376342,82.9331195 62.9207193,77.7545011 68.3193571,69.3650409 C71.357188,64.6442648 72.9974253,59.1482051 72.9974253,53.413074 C72.9974253,37.709711 60.2443316,24.8546989 44.5112353,24.0819402 Z" id="Oval" stroke="#FFFFFF" stroke-width="3" transform="translate(43.471582, 49.028238) rotate(-161.000000) translate(-43.471582, -49.028238) "></path>
    </g>
</svg>