<?xml version="1.0" encoding="UTF-8"?>
<svg width="90px" height="90px" viewBox="0 0 90 90" version="1.1" xmlns="http://www.w3.org/2000/svg" xmlns:xlink="http://www.w3.org/1999/xlink">
    <!-- Generator: Sketch 43.2 (39069) - http://www.bohemiancoding.com/sketch -->
    <title>reverse_time2_icon</title>
    <desc>Created with Sketch.</desc>
    <defs></defs>
    <g id="Page-1" stroke="none" stroke-width="1" fill="none" fill-rule="evenodd">
        <path d="M55,22 L45.0009766,45.7382812" id="Line" stroke="#FFFFFF" stroke-width="4" stroke-linecap="square"></path>
        <path d="M58.5078125,56.5585938 L45.1943359,45.7666016" id="Line" stroke="#FFFFFF" stroke-width="4" stroke-linecap="square"></path>
        <circle id="Oval-2" fill="#FFFFFF" cx="45" cy="45.5" r="4"></circle>
        <path d="M42.4021823,16.8831876 L42.4021823,8.94477658 L42.4021823,6.66812629 L40.7256427,8.20837029 L25.3784828,22.3078711 L24.5198726,23.0966799 L25.4302736,23.8251033 L40.7774335,36.1045612 L42.4021823,37.4045433 L42.4021823,35.3237353 L42.4021823,27.1620805 C52.3354273,27.681155 60.4806191,35.8785592 60.4806191,45.7344943 C60.4806191,49.5512282 59.3302839,53.1933964 57.2136501,56.2699714 C53.7604325,61.289301 48.0705964,64.3485261 41.8625286,64.3485261 C32.1400891,64.3485261 23.798943,55.657503 23.3027218,45.6847978 L23.2554366,44.7344943 L22.3039574,44.7344943 C17.7101282,44.7344943 17.7101282,44.7344943 13.8366851,44.7344943 L12.8366851,44.7344943 L12.8366851,45.7344943 C12.8366851,61.7618692 25.8320442,74.7545398 41.8625286,74.7545398 C51.8567384,74.7545398 60.9822855,69.6638048 66.2898382,61.4158905 C69.2761268,56.7752109 70.8883722,51.3729456 70.8883722,45.7344943 C70.8883722,30.1444908 58.0912419,17.4046078 42.4021823,16.8831876 Z" id="Oval" stroke="#FFFFFF" stroke-width="2" transform="translate(41.862529, 41.349658) scale(1, -1) rotate(-139.000000) translate(-41.862529, -41.349658) "></path>
    </g>
</svg>