<?xml version="1.0" encoding="UTF-8"?>
<svg width="90px" height="90px" viewBox="0 0 90 90" version="1.1" xmlns="http://www.w3.org/2000/svg" xmlns:xlink="http://www.w3.org/1999/xlink">
    <!-- Generator: Sketch 43.2 (39069) - http://www.bohemiancoding.com/sketch -->
    <title>fast_forward_icon</title>
    <desc>Created with Sketch.</desc>
    <defs></defs>
    <g id="Page-1" stroke="none" stroke-width="1" fill="none" fill-rule="evenodd">
        <circle id="Oval" stroke="#FFFFFF" stroke-width="2" cx="45" cy="45" r="29"></circle>
        <path d="M47.7285245,34.8995647 C47.1022486,35.4358056 47.1300752,40.4133128 47.0629721,45.2773914 C46.9958691,50.1414701 46.8253866,54.7531519 47.617283,55.1344054 C48.4334187,55.5273287 52.7735405,53.0551169 57.1442779,50.6237914 C61.5150152,48.1924658 65.5488859,46.0438532 65.5352652,45.2773914 C65.5208733,44.4675296 60.5034048,41.7636573 56.0664368,39.1751544 C51.6294688,36.5866514 48.330224,34.3843672 47.7285245,34.8995647 Z" id="Path-3" stroke="#FFFFFF" stroke-width="2" stroke-linecap="round" stroke-linejoin="round"></path>
        <path d="M29.1932249,34.8995647 C28.566949,35.4358056 28.5947756,40.4133128 28.5276725,45.2773914 C28.4605695,50.1414701 28.290087,54.7531519 29.0819834,55.1344054 C29.8981191,55.5273287 34.2382409,53.0551169 38.6089783,50.6237914 C42.9797156,48.1924658 47.0135862,46.0438532 46.9999656,45.2773914 C46.9855737,44.4675296 41.9681052,41.7636573 37.5311372,39.1751544 C33.0941692,36.5866514 29.7949244,34.3843672 29.1932249,34.8995647 Z" id="Path-3" stroke="#FFFFFF" stroke-width="2" stroke-linecap="round" stroke-linejoin="round"></path>
    </g>
</svg>