<?xml version="1.0" encoding="UTF-8"?>
<svg width="90px" height="90px" viewBox="0 0 90 90" version="1.1" xmlns="http://www.w3.org/2000/svg" xmlns:xlink="http://www.w3.org/1999/xlink">
    <!-- Generator: Sketch 43.2 (39069) - http://www.bohemiancoding.com/sketch -->
    <title>pause_icon</title>
    <desc>Created with Sketch.</desc>
    <defs></defs>
    <g id="Page-1" stroke="none" stroke-width="1" fill="none" fill-rule="evenodd">
        <path d="M54.5,29 C50,29 50,31.733667 50,31.733667 L50,58.2581448 C50,58.2581448 50,61.1089793 54.5,61.1089793 C59,61.1089793 59,58.2581448 59,58.2581448 L59,31.733667 C59,31.733667 59,29 54.5,29 Z" id="Path-2" stroke="#FFFFFF" stroke-width="2"></path>
        <path d="M35.5,29 C31,29 31,31.733667 31,31.733667 L31,58.2581448 C31,58.2581448 31,61.1089793 35.5,61.1089793 C40,61.1089793 40,58.2581448 40,58.2581448 L40,31.733667 C40,31.733667 40,29 35.5,29 Z" id="Path-2" stroke="#FFFFFF" stroke-width="2"></path>
        <circle id="Oval" stroke="#FFFFFF" stroke-width="2" cx="45" cy="45" r="29"></circle>
    </g>
</svg>