<?xml version="1.0" encoding="UTF-8"?>
<svg width="90px" height="90px" viewBox="0 0 90 90" version="1.1" xmlns="http://www.w3.org/2000/svg" xmlns:xlink="http://www.w3.org/1999/xlink">
    <!-- Generator: Sketch 43.2 (39069) - http://www.bohemiancoding.com/sketch -->
    <title>reload_icon</title>
    <desc>Created with Sketch.</desc>
    <defs></defs>
    <g id="Page-1" stroke="none" stroke-width="1" fill="none" fill-rule="evenodd">
        <rect id="Rectangle" fill="#000000" x="0" y="0" width="90" height="90"></rect>
        <path d="M44.8940609,11.7604182 C40.3044499,11.7604182 40.3044499,14.5966059 40.3044499,14.5966059 L40.3044499,42.115831 C40.3044499,42.115831 40.3044499,45.0735803 44.8940609,45.0735803 C49.483672,45.0735803 49.483672,42.115831 49.483672,42.115831 L49.483672,14.5966059 C49.483672,14.5966059 49.483672,11.7604182 44.8940609,11.7604182 Z" id="Path-2" stroke="#FFFFFF" stroke-width="2"></path>
        <path d="M55.0619315,17.9518986 C66.0041143,22.0657538 73.7898522,32.5449113 73.7898522,44.9249724 C73.7898522,60.8831994 60.8531531,73.8198985 44.8949261,73.8198985 C28.9366991,73.8198985 16,60.8831994 16,44.9249724 C16,32.6267686 23.6831191,22.1230535 34.5112857,17.9518986 L34.5112857,29.6700134 C29.216105,32.9272621 25.7677564,38.6521791 25.7677564,45.1574085 C25.7677564,55.3746764 34.2743461,63.6574085 44.7677564,63.6574085 C55.2611666,63.6574085 63.7677564,55.3746764 63.7677564,45.1574085 C63.7677564,38.604038 60.2681808,32.9565662 54.9894003,29.6700134 L55.0619315,17.9518986 Z" id="Oval-3" stroke="#FFFFFF" stroke-width="2"></path>
    </g>
</svg>