<?xml version="1.0" encoding="UTF-8"?>
<svg width="90px" height="90px" viewBox="0 0 90 90" version="1.1" xmlns="http://www.w3.org/2000/svg" xmlns:xlink="http://www.w3.org/1999/xlink">
    <!-- Generator: Sketch 43.2 (39069) - http://www.bohemiancoding.com/sketch -->
    <title>reverse_time_icon</title>
    <desc>Created with Sketch.</desc>
    <defs></defs>
    <g id="Page-1" stroke="none" stroke-width="1" fill="none" fill-rule="evenodd">
        <path d="M55,22 L45.0009766,45.7382812" id="Line" stroke="#FFFFFF" stroke-width="4" stroke-linecap="square"></path>
        <path d="M58.5078125,56.5585938 L45.1943359,45.7666016" id="Line" stroke="#FFFFFF" stroke-width="4" stroke-linecap="square"></path>
        <circle id="Oval-2" fill="#FFFFFF" cx="45" cy="45.5" r="4"></circle>
        <path d="M44.0112353,24.5617673 L44.0112353,16.6233563 L44.0112353,14.346706 L42.3346958,15.88695 L26.9875358,29.9864508 L26.1289257,30.7752596 L27.0393267,31.503683 L42.3864866,43.7831409 L44.0112353,45.083123 L44.0112353,43.002315 L44.0112353,34.8406602 C53.9444804,35.3597347 62.0896722,43.5571389 62.0896722,53.413074 C62.0896722,57.2298079 60.939337,60.8719761 58.8227032,63.9485511 C55.3694856,68.9678807 49.6796495,72.0271058 43.4715817,72.0271058 C33.7491422,72.0271058 25.4079961,63.3360827 24.9117749,53.3633775 L24.8644897,52.413074 L23.9130105,52.413074 C19.3191813,52.413074 19.3191813,52.413074 15.4457382,52.413074 L14.4457382,52.413074 L14.4457382,53.413074 C14.4457382,69.4404489 27.4410973,82.4331195 43.4715817,82.4331195 C53.4657915,82.4331195 62.5913386,77.3423845 67.8988913,69.0944702 C70.8851799,64.4537906 72.4974253,59.0515253 72.4974253,53.413074 C72.4974253,37.8230705 59.700295,25.0831875 44.0112353,24.5617673 Z" id="Oval" stroke="#FFFFFF" stroke-width="2" transform="translate(43.471582, 49.028238) rotate(-161.000000) translate(-43.471582, -49.028238) "></path>
    </g>
</svg>